<mxfile host="Electron" modified="2023-10-28T20:12:34.056Z" agent="Mozilla/5.0 (Windows NT 10.0; Win64; x64) AppleWebKit/537.36 (KHTML, like Gecko) draw.io/22.0.3 Chrome/114.0.5735.289 Electron/25.8.4 Safari/537.36" etag="5MfPDq9KK1Sqz56hdwwL" version="22.0.3" type="device">
  <diagram name="PÃ¡gina-1" id="sW1KA7AYZyVYEQ3tkRH6">
    <mxGraphModel dx="880" dy="532" grid="1" gridSize="5" guides="1" tooltips="1" connect="1" arrows="1" fold="1" page="1" pageScale="1" pageWidth="900" pageHeight="1600" math="0" shadow="0">
      <root>
        <mxCell id="0" />
        <mxCell id="1" parent="0" />
        <mxCell id="k_RozOxkvB2d1GZJaJB8-33" value="Pool" style="swimlane;childLayout=stackLayout;resizeParent=1;resizeParentMax=0;startSize=15;html=1;" parent="1" vertex="1">
          <mxGeometry x="30" y="30" width="1415" height="3765" as="geometry" />
        </mxCell>
        <mxCell id="k_RozOxkvB2d1GZJaJB8-34" value="Ventas" style="swimlane;startSize=20;html=1;" parent="k_RozOxkvB2d1GZJaJB8-33" vertex="1">
          <mxGeometry y="15" width="190" height="3750" as="geometry" />
        </mxCell>
        <mxCell id="RTZScmee62FlTtLlPYEP-4" style="edgeStyle=orthogonalEdgeStyle;rounded=0;orthogonalLoop=1;jettySize=auto;html=1;" edge="1" parent="k_RozOxkvB2d1GZJaJB8-34" source="i-_UMw4Egj-UnV-Cpslk-4">
          <mxGeometry relative="1" as="geometry">
            <mxPoint x="42.5" y="155" as="targetPoint" />
          </mxGeometry>
        </mxCell>
        <mxCell id="i-_UMw4Egj-UnV-Cpslk-4" value="1" style="ellipse;whiteSpace=wrap;html=1;aspect=fixed;" parent="k_RozOxkvB2d1GZJaJB8-34" vertex="1">
          <mxGeometry x="20" y="75" width="45" height="45" as="geometry" />
        </mxCell>
        <mxCell id="i-_UMw4Egj-UnV-Cpslk-6" value="Emite y los envia" style="text;html=1;strokeColor=none;fillColor=none;align=center;verticalAlign=middle;whiteSpace=wrap;rounded=0;" parent="k_RozOxkvB2d1GZJaJB8-34" vertex="1">
          <mxGeometry x="80" y="82.5" width="60" height="30" as="geometry" />
        </mxCell>
        <mxCell id="RTZScmee62FlTtLlPYEP-5" style="edgeStyle=orthogonalEdgeStyle;rounded=0;orthogonalLoop=1;jettySize=auto;html=1;" edge="1" parent="k_RozOxkvB2d1GZJaJB8-34" source="RTZScmee62FlTtLlPYEP-1">
          <mxGeometry relative="1" as="geometry">
            <mxPoint x="240" y="185" as="targetPoint" />
          </mxGeometry>
        </mxCell>
        <mxCell id="RTZScmee62FlTtLlPYEP-1" value="F2" style="shape=document;whiteSpace=wrap;html=1;boundedLbl=1;" vertex="1" parent="k_RozOxkvB2d1GZJaJB8-34">
          <mxGeometry x="40" y="165" width="60" height="40" as="geometry" />
        </mxCell>
        <mxCell id="RTZScmee62FlTtLlPYEP-2" value="F1" style="shape=document;whiteSpace=wrap;html=1;boundedLbl=1;" vertex="1" parent="k_RozOxkvB2d1GZJaJB8-34">
          <mxGeometry x="10" y="180" width="60" height="40" as="geometry" />
        </mxCell>
        <mxCell id="RTZScmee62FlTtLlPYEP-24" value="" style="endArrow=none;dashed=1;html=1;dashPattern=12 12;strokeWidth=2;rounded=0;strokeColor=#00CC00;fillColor=#60a917;" edge="1" parent="k_RozOxkvB2d1GZJaJB8-34">
          <mxGeometry width="50" height="50" relative="1" as="geometry">
            <mxPoint y="365" as="sourcePoint" />
            <mxPoint x="1422" y="365" as="targetPoint" />
          </mxGeometry>
        </mxCell>
        <mxCell id="k_RozOxkvB2d1GZJaJB8-35" value="Caja" style="swimlane;startSize=20;html=1;" parent="k_RozOxkvB2d1GZJaJB8-33" vertex="1">
          <mxGeometry x="190" y="15" width="215" height="3750" as="geometry" />
        </mxCell>
        <mxCell id="RTZScmee62FlTtLlPYEP-13" style="edgeStyle=orthogonalEdgeStyle;rounded=0;orthogonalLoop=1;jettySize=auto;html=1;entryX=0.5;entryY=0;entryDx=0;entryDy=0;" edge="1" parent="k_RozOxkvB2d1GZJaJB8-35" source="RTZScmee62FlTtLlPYEP-6" target="RTZScmee62FlTtLlPYEP-12">
          <mxGeometry relative="1" as="geometry" />
        </mxCell>
        <mxCell id="RTZScmee62FlTtLlPYEP-6" value="2" style="ellipse;whiteSpace=wrap;html=1;aspect=fixed;" vertex="1" parent="k_RozOxkvB2d1GZJaJB8-35">
          <mxGeometry x="50" y="162.5" width="45" height="45" as="geometry" />
        </mxCell>
        <mxCell id="RTZScmee62FlTtLlPYEP-7" value="Recibe y sella las facturas" style="text;html=1;strokeColor=none;fillColor=none;align=center;verticalAlign=middle;whiteSpace=wrap;rounded=0;" vertex="1" parent="k_RozOxkvB2d1GZJaJB8-35">
          <mxGeometry x="35" y="120" width="60" height="30" as="geometry" />
        </mxCell>
        <mxCell id="RTZScmee62FlTtLlPYEP-8" value="F2" style="shape=document;whiteSpace=wrap;html=1;boundedLbl=1;" vertex="1" parent="k_RozOxkvB2d1GZJaJB8-35">
          <mxGeometry x="140" y="152.5" width="60" height="40" as="geometry" />
        </mxCell>
        <mxCell id="RTZScmee62FlTtLlPYEP-9" value="F1" style="shape=document;whiteSpace=wrap;html=1;boundedLbl=1;" vertex="1" parent="k_RozOxkvB2d1GZJaJB8-35">
          <mxGeometry x="110" y="167.5" width="60" height="40" as="geometry" />
        </mxCell>
        <mxCell id="RTZScmee62FlTtLlPYEP-18" style="edgeStyle=orthogonalEdgeStyle;rounded=0;orthogonalLoop=1;jettySize=auto;html=1;" edge="1" parent="k_RozOxkvB2d1GZJaJB8-35" source="RTZScmee62FlTtLlPYEP-12">
          <mxGeometry relative="1" as="geometry">
            <mxPoint x="275" y="302.5" as="targetPoint" />
          </mxGeometry>
        </mxCell>
        <mxCell id="RTZScmee62FlTtLlPYEP-12" value="3" style="ellipse;whiteSpace=wrap;html=1;aspect=fixed;" vertex="1" parent="k_RozOxkvB2d1GZJaJB8-35">
          <mxGeometry x="50" y="280" width="45" height="45" as="geometry" />
        </mxCell>
        <mxCell id="RTZScmee62FlTtLlPYEP-14" value="Envia el original y retiene el duplicado" style="text;html=1;strokeColor=none;fillColor=none;align=center;verticalAlign=middle;whiteSpace=wrap;rounded=0;" vertex="1" parent="k_RozOxkvB2d1GZJaJB8-35">
          <mxGeometry x="105" y="240" width="60" height="30" as="geometry" />
        </mxCell>
        <mxCell id="RTZScmee62FlTtLlPYEP-11" value="" style="endArrow=none;html=1;rounded=0;" edge="1" parent="k_RozOxkvB2d1GZJaJB8-35">
          <mxGeometry width="50" height="50" relative="1" as="geometry">
            <mxPoint x="175" y="200" as="sourcePoint" />
            <mxPoint x="135" y="155" as="targetPoint" />
          </mxGeometry>
        </mxCell>
        <mxCell id="RTZScmee62FlTtLlPYEP-10" value="" style="endArrow=none;html=1;rounded=0;" edge="1" parent="k_RozOxkvB2d1GZJaJB8-35">
          <mxGeometry width="50" height="50" relative="1" as="geometry">
            <mxPoint x="210" y="185" as="sourcePoint" />
            <mxPoint x="170" y="140" as="targetPoint" />
          </mxGeometry>
        </mxCell>
        <mxCell id="RTZScmee62FlTtLlPYEP-53" value="4" style="ellipse;whiteSpace=wrap;html=1;aspect=fixed;" vertex="1" parent="k_RozOxkvB2d1GZJaJB8-35">
          <mxGeometry x="105" y="600" width="45" height="45" as="geometry" />
        </mxCell>
        <mxCell id="RTZScmee62FlTtLlPYEP-54" value="Recibe y sella&amp;nbsp;" style="text;html=1;strokeColor=none;fillColor=none;align=center;verticalAlign=middle;whiteSpace=wrap;rounded=0;" vertex="1" parent="k_RozOxkvB2d1GZJaJB8-35">
          <mxGeometry x="80" y="560" width="95" height="45" as="geometry" />
        </mxCell>
        <mxCell id="RTZScmee62FlTtLlPYEP-55" value="R2" style="shape=document;whiteSpace=wrap;html=1;boundedLbl=1;" vertex="1" parent="k_RozOxkvB2d1GZJaJB8-35">
          <mxGeometry x="102.5" y="670" width="60" height="40" as="geometry" />
        </mxCell>
        <mxCell id="RTZScmee62FlTtLlPYEP-62" style="edgeStyle=orthogonalEdgeStyle;rounded=0;orthogonalLoop=1;jettySize=auto;html=1;" edge="1" parent="k_RozOxkvB2d1GZJaJB8-35" source="RTZScmee62FlTtLlPYEP-56">
          <mxGeometry relative="1" as="geometry">
            <mxPoint x="265" y="730" as="targetPoint" />
          </mxGeometry>
        </mxCell>
        <mxCell id="RTZScmee62FlTtLlPYEP-56" value="R1" style="shape=document;whiteSpace=wrap;html=1;boundedLbl=1;" vertex="1" parent="k_RozOxkvB2d1GZJaJB8-35">
          <mxGeometry x="70" y="710" width="60" height="40" as="geometry" />
        </mxCell>
        <mxCell id="RTZScmee62FlTtLlPYEP-57" value="" style="endArrow=none;html=1;rounded=0;" edge="1" parent="k_RozOxkvB2d1GZJaJB8-35">
          <mxGeometry width="50" height="50" relative="1" as="geometry">
            <mxPoint x="172.5" y="700" as="sourcePoint" />
            <mxPoint x="132.5" y="655" as="targetPoint" />
          </mxGeometry>
        </mxCell>
        <mxCell id="RTZScmee62FlTtLlPYEP-58" value="" style="endArrow=none;html=1;rounded=0;" edge="1" parent="k_RozOxkvB2d1GZJaJB8-35">
          <mxGeometry width="50" height="50" relative="1" as="geometry">
            <mxPoint x="135" y="740" as="sourcePoint" />
            <mxPoint x="95" y="695" as="targetPoint" />
          </mxGeometry>
        </mxCell>
        <mxCell id="RTZScmee62FlTtLlPYEP-59" value="$" style="shape=tape;whiteSpace=wrap;html=1;strokeWidth=2;size=0.19" vertex="1" parent="k_RozOxkvB2d1GZJaJB8-35">
          <mxGeometry x="27.5" y="665" width="55" height="35" as="geometry" />
        </mxCell>
        <mxCell id="RTZScmee62FlTtLlPYEP-74" style="edgeStyle=orthogonalEdgeStyle;rounded=0;orthogonalLoop=1;jettySize=auto;html=1;entryX=0.5;entryY=0;entryDx=0;entryDy=0;" edge="1" parent="k_RozOxkvB2d1GZJaJB8-35" source="RTZScmee62FlTtLlPYEP-69" target="RTZScmee62FlTtLlPYEP-71">
          <mxGeometry relative="1" as="geometry" />
        </mxCell>
        <mxCell id="RTZScmee62FlTtLlPYEP-69" value="1" style="ellipse;whiteSpace=wrap;html=1;aspect=fixed;" vertex="1" parent="k_RozOxkvB2d1GZJaJB8-35">
          <mxGeometry x="27.5" y="855" width="45" height="45" as="geometry" />
        </mxCell>
        <mxCell id="RTZScmee62FlTtLlPYEP-70" value="Confecciona la planilla de caja y entrega los documentos" style="text;html=1;strokeColor=none;fillColor=none;align=center;verticalAlign=middle;whiteSpace=wrap;rounded=0;" vertex="1" parent="k_RozOxkvB2d1GZJaJB8-35">
          <mxGeometry x="80" y="845" width="95" height="45" as="geometry" />
        </mxCell>
        <mxCell id="RTZScmee62FlTtLlPYEP-77" style="edgeStyle=orthogonalEdgeStyle;rounded=0;orthogonalLoop=1;jettySize=auto;html=1;" edge="1" parent="k_RozOxkvB2d1GZJaJB8-35" source="RTZScmee62FlTtLlPYEP-71">
          <mxGeometry relative="1" as="geometry">
            <mxPoint x="475" y="987.5" as="targetPoint" />
          </mxGeometry>
        </mxCell>
        <mxCell id="RTZScmee62FlTtLlPYEP-71" value="" style="ellipse;whiteSpace=wrap;html=1;aspect=fixed;" vertex="1" parent="k_RozOxkvB2d1GZJaJB8-35">
          <mxGeometry x="27.5" y="965" width="45" height="45" as="geometry" />
        </mxCell>
        <mxCell id="RTZScmee62FlTtLlPYEP-72" value="" style="endArrow=none;html=1;rounded=0;entryX=0.5;entryY=0;entryDx=0;entryDy=0;exitX=0;exitY=1;exitDx=0;exitDy=0;" edge="1" parent="k_RozOxkvB2d1GZJaJB8-35" source="RTZScmee62FlTtLlPYEP-71" target="RTZScmee62FlTtLlPYEP-71">
          <mxGeometry width="50" height="50" relative="1" as="geometry">
            <mxPoint x="300" y="1020" as="sourcePoint" />
            <mxPoint x="350" y="970" as="targetPoint" />
          </mxGeometry>
        </mxCell>
        <mxCell id="RTZScmee62FlTtLlPYEP-73" value="" style="endArrow=none;html=1;rounded=0;entryX=0.5;entryY=0;entryDx=0;entryDy=0;exitX=1;exitY=1;exitDx=0;exitDy=0;" edge="1" parent="k_RozOxkvB2d1GZJaJB8-35" source="RTZScmee62FlTtLlPYEP-71" target="RTZScmee62FlTtLlPYEP-71">
          <mxGeometry width="50" height="50" relative="1" as="geometry">
            <mxPoint x="300" y="1020" as="sourcePoint" />
            <mxPoint x="350" y="970" as="targetPoint" />
          </mxGeometry>
        </mxCell>
        <mxCell id="RTZScmee62FlTtLlPYEP-83" value="PdC" style="shape=document;whiteSpace=wrap;html=1;boundedLbl=1;" vertex="1" parent="k_RozOxkvB2d1GZJaJB8-35">
          <mxGeometry x="90" y="905" width="60" height="40" as="geometry" />
        </mxCell>
        <mxCell id="k_RozOxkvB2d1GZJaJB8-36" value="Cliente" style="swimlane;startSize=20;html=1;" parent="k_RozOxkvB2d1GZJaJB8-33" vertex="1">
          <mxGeometry x="405" y="15" width="210" height="3750" as="geometry" />
        </mxCell>
        <mxCell id="RTZScmee62FlTtLlPYEP-16" value="F1" style="shape=document;whiteSpace=wrap;html=1;boundedLbl=1;" vertex="1" parent="k_RozOxkvB2d1GZJaJB8-36">
          <mxGeometry x="70" y="282.5" width="60" height="40" as="geometry" />
        </mxCell>
        <mxCell id="RTZScmee62FlTtLlPYEP-17" value="" style="endArrow=none;html=1;rounded=0;" edge="1" parent="k_RozOxkvB2d1GZJaJB8-36">
          <mxGeometry width="50" height="50" relative="1" as="geometry">
            <mxPoint x="140" y="310" as="sourcePoint" />
            <mxPoint x="100" y="265" as="targetPoint" />
          </mxGeometry>
        </mxCell>
        <mxCell id="RTZScmee62FlTtLlPYEP-27" value="Se presenta en Ctas Ctes. e Indica la cuenta" style="text;html=1;strokeColor=none;fillColor=none;align=center;verticalAlign=middle;whiteSpace=wrap;rounded=0;" vertex="1" parent="k_RozOxkvB2d1GZJaJB8-36">
          <mxGeometry x="95" y="370" width="95" height="45" as="geometry" />
        </mxCell>
        <mxCell id="RTZScmee62FlTtLlPYEP-48" value="3" style="ellipse;whiteSpace=wrap;html=1;aspect=fixed;" vertex="1" parent="k_RozOxkvB2d1GZJaJB8-36">
          <mxGeometry x="90" y="542.5" width="45" height="45" as="geometry" />
        </mxCell>
        <mxCell id="RTZScmee62FlTtLlPYEP-50" value="R2" style="shape=document;whiteSpace=wrap;html=1;boundedLbl=1;" vertex="1" parent="k_RozOxkvB2d1GZJaJB8-36">
          <mxGeometry x="25" y="535" width="60" height="40" as="geometry" />
        </mxCell>
        <mxCell id="RTZScmee62FlTtLlPYEP-51" value="R1" style="shape=document;whiteSpace=wrap;html=1;boundedLbl=1;" vertex="1" parent="k_RozOxkvB2d1GZJaJB8-36">
          <mxGeometry x="5" y="555" width="60" height="40" as="geometry" />
        </mxCell>
        <mxCell id="RTZScmee62FlTtLlPYEP-63" value="R1" style="shape=document;whiteSpace=wrap;html=1;boundedLbl=1;" vertex="1" parent="k_RozOxkvB2d1GZJaJB8-36">
          <mxGeometry x="60" y="710" width="60" height="40" as="geometry" />
        </mxCell>
        <mxCell id="RTZScmee62FlTtLlPYEP-64" value="" style="endArrow=none;html=1;rounded=0;" edge="1" parent="k_RozOxkvB2d1GZJaJB8-36">
          <mxGeometry width="50" height="50" relative="1" as="geometry">
            <mxPoint x="125" y="740" as="sourcePoint" />
            <mxPoint x="85" y="695" as="targetPoint" />
          </mxGeometry>
        </mxCell>
        <mxCell id="RTZScmee62FlTtLlPYEP-67" value="&lt;font color=&quot;#f90101&quot; style=&quot;font-size: 18px;&quot;&gt;Al final del dÃ­a&lt;/font&gt;" style="text;html=1;strokeColor=none;fillColor=none;align=center;verticalAlign=middle;whiteSpace=wrap;rounded=0;" vertex="1" parent="k_RozOxkvB2d1GZJaJB8-36">
          <mxGeometry x="25" y="810" width="145" height="30" as="geometry" />
        </mxCell>
        <mxCell id="k_RozOxkvB2d1GZJaJB8-38" value="Ctas. Ctes." style="swimlane;startSize=20;html=1;" parent="k_RozOxkvB2d1GZJaJB8-33" vertex="1">
          <mxGeometry x="615" y="15" width="200" height="3750" as="geometry" />
        </mxCell>
        <mxCell id="RTZScmee62FlTtLlPYEP-43" style="edgeStyle=orthogonalEdgeStyle;rounded=0;orthogonalLoop=1;jettySize=auto;html=1;" edge="1" parent="k_RozOxkvB2d1GZJaJB8-38" source="RTZScmee62FlTtLlPYEP-41">
          <mxGeometry relative="1" as="geometry">
            <mxPoint x="62.5" y="515" as="targetPoint" />
          </mxGeometry>
        </mxCell>
        <mxCell id="RTZScmee62FlTtLlPYEP-41" value="2" style="ellipse;whiteSpace=wrap;html=1;aspect=fixed;" vertex="1" parent="k_RozOxkvB2d1GZJaJB8-38">
          <mxGeometry x="40" y="415" width="45" height="45" as="geometry" />
        </mxCell>
        <mxCell id="RTZScmee62FlTtLlPYEP-42" value="Emite el recibo y su duplicado y los envia" style="text;html=1;strokeColor=none;fillColor=none;align=center;verticalAlign=middle;whiteSpace=wrap;rounded=0;" vertex="1" parent="k_RozOxkvB2d1GZJaJB8-38">
          <mxGeometry x="85" y="380" width="95" height="45" as="geometry" />
        </mxCell>
        <mxCell id="RTZScmee62FlTtLlPYEP-46" value="R2" style="shape=document;whiteSpace=wrap;html=1;boundedLbl=1;" vertex="1" parent="k_RozOxkvB2d1GZJaJB8-38">
          <mxGeometry x="42.5" y="525" width="60" height="40" as="geometry" />
        </mxCell>
        <mxCell id="RTZScmee62FlTtLlPYEP-44" value="R1" style="shape=document;whiteSpace=wrap;html=1;boundedLbl=1;" vertex="1" parent="k_RozOxkvB2d1GZJaJB8-38">
          <mxGeometry x="22.5" y="545" width="60" height="40" as="geometry" />
        </mxCell>
        <mxCell id="RTZScmee62FlTtLlPYEP-78" value="R2" style="shape=document;whiteSpace=wrap;html=1;boundedLbl=1;" vertex="1" parent="k_RozOxkvB2d1GZJaJB8-38">
          <mxGeometry x="55" y="970" width="60" height="40" as="geometry" />
        </mxCell>
        <mxCell id="RTZScmee62FlTtLlPYEP-79" value="" style="endArrow=none;html=1;rounded=0;" edge="1" parent="k_RozOxkvB2d1GZJaJB8-38">
          <mxGeometry width="50" height="50" relative="1" as="geometry">
            <mxPoint x="125" y="1000" as="sourcePoint" />
            <mxPoint x="85" y="955" as="targetPoint" />
          </mxGeometry>
        </mxCell>
        <mxCell id="RTZScmee62FlTtLlPYEP-97" value="&lt;font color=&quot;#ff0000&quot; style=&quot;font-size: 17px;&quot;&gt;Al dÃ­a siguiente&lt;/font&gt;" style="text;html=1;strokeColor=none;fillColor=none;align=center;verticalAlign=middle;whiteSpace=wrap;rounded=0;" vertex="1" parent="k_RozOxkvB2d1GZJaJB8-38">
          <mxGeometry x="50" y="1595" width="140" height="30" as="geometry" />
        </mxCell>
        <mxCell id="RTZScmee62FlTtLlPYEP-143" style="edgeStyle=orthogonalEdgeStyle;rounded=0;orthogonalLoop=1;jettySize=auto;html=1;" edge="1" parent="k_RozOxkvB2d1GZJaJB8-38" source="RTZScmee62FlTtLlPYEP-141">
          <mxGeometry relative="1" as="geometry">
            <mxPoint x="55" y="2470" as="targetPoint" />
          </mxGeometry>
        </mxCell>
        <mxCell id="RTZScmee62FlTtLlPYEP-141" value="3" style="ellipse;whiteSpace=wrap;html=1;aspect=fixed;" vertex="1" parent="k_RozOxkvB2d1GZJaJB8-38">
          <mxGeometry x="30" y="2365" width="50" height="50" as="geometry" />
        </mxCell>
        <mxCell id="RTZScmee62FlTtLlPYEP-142" value="Registra los recibos" style="text;html=1;strokeColor=none;fillColor=none;align=center;verticalAlign=middle;whiteSpace=wrap;rounded=0;" vertex="1" parent="k_RozOxkvB2d1GZJaJB8-38">
          <mxGeometry x="100" y="2350" width="60" height="30" as="geometry" />
        </mxCell>
        <mxCell id="RTZScmee62FlTtLlPYEP-145" value="SdD" style="shape=document;whiteSpace=wrap;html=1;boundedLbl=1;" vertex="1" parent="k_RozOxkvB2d1GZJaJB8-38">
          <mxGeometry x="25" y="2480" width="60" height="40" as="geometry" />
        </mxCell>
        <mxCell id="RTZScmee62FlTtLlPYEP-146" value="FC" style="shape=document;whiteSpace=wrap;html=1;boundedLbl=1;" vertex="1" parent="k_RozOxkvB2d1GZJaJB8-38">
          <mxGeometry x="102.5" y="2480" width="60" height="40" as="geometry" />
        </mxCell>
        <mxCell id="RTZScmee62FlTtLlPYEP-152" style="edgeStyle=orthogonalEdgeStyle;rounded=0;orthogonalLoop=1;jettySize=auto;html=1;" edge="1" parent="k_RozOxkvB2d1GZJaJB8-38" source="RTZScmee62FlTtLlPYEP-148">
          <mxGeometry relative="1" as="geometry">
            <mxPoint x="90" y="2830" as="targetPoint" />
          </mxGeometry>
        </mxCell>
        <mxCell id="RTZScmee62FlTtLlPYEP-148" value="4" style="ellipse;whiteSpace=wrap;html=1;aspect=fixed;" vertex="1" parent="k_RozOxkvB2d1GZJaJB8-38">
          <mxGeometry x="65" y="2740" width="50" height="50" as="geometry" />
        </mxCell>
        <mxCell id="RTZScmee62FlTtLlPYEP-150" style="edgeStyle=orthogonalEdgeStyle;rounded=0;orthogonalLoop=1;jettySize=auto;html=1;" edge="1" parent="k_RozOxkvB2d1GZJaJB8-38" source="RTZScmee62FlTtLlPYEP-149">
          <mxGeometry relative="1" as="geometry">
            <mxPoint x="90" y="2740" as="targetPoint" />
          </mxGeometry>
        </mxCell>
        <mxCell id="RTZScmee62FlTtLlPYEP-149" value="FM" style="shape=document;whiteSpace=wrap;html=1;boundedLbl=1;" vertex="1" parent="k_RozOxkvB2d1GZJaJB8-38">
          <mxGeometry x="60" y="2625" width="60" height="40" as="geometry" />
        </mxCell>
        <mxCell id="RTZScmee62FlTtLlPYEP-151" value="Confecciona la Minuta" style="text;html=1;strokeColor=none;fillColor=none;align=center;verticalAlign=middle;whiteSpace=wrap;rounded=0;" vertex="1" parent="k_RozOxkvB2d1GZJaJB8-38">
          <mxGeometry x="125" y="2740" width="60" height="30" as="geometry" />
        </mxCell>
        <mxCell id="RTZScmee62FlTtLlPYEP-154" style="edgeStyle=orthogonalEdgeStyle;rounded=0;orthogonalLoop=1;jettySize=auto;html=1;" edge="1" parent="k_RozOxkvB2d1GZJaJB8-38" source="RTZScmee62FlTtLlPYEP-153">
          <mxGeometry relative="1" as="geometry">
            <mxPoint x="485" y="2855" as="targetPoint" />
          </mxGeometry>
        </mxCell>
        <mxCell id="RTZScmee62FlTtLlPYEP-153" value="M" style="shape=document;whiteSpace=wrap;html=1;boundedLbl=1;" vertex="1" parent="k_RozOxkvB2d1GZJaJB8-38">
          <mxGeometry x="65" y="2835" width="60" height="40" as="geometry" />
        </mxCell>
        <mxCell id="i-_UMw4Egj-UnV-Cpslk-1" value="TesorerÃ­a" style="swimlane;startSize=20;html=1;" parent="k_RozOxkvB2d1GZJaJB8-33" vertex="1">
          <mxGeometry x="815" y="15" width="200" height="3750" as="geometry" />
        </mxCell>
        <mxCell id="RTZScmee62FlTtLlPYEP-25" value="&lt;font style=&quot;font-size: 17px;&quot;&gt;OperaciÃ³n B&lt;/font&gt;" style="text;html=1;strokeColor=none;fillColor=none;align=center;verticalAlign=middle;whiteSpace=wrap;rounded=0;fontColor=#08ba14;" vertex="1" parent="i-_UMw4Egj-UnV-Cpslk-1">
          <mxGeometry x="-45" y="335" width="100" height="30" as="geometry" />
        </mxCell>
        <mxCell id="RTZScmee62FlTtLlPYEP-84" value="PdC" style="shape=document;whiteSpace=wrap;html=1;boundedLbl=1;" vertex="1" parent="i-_UMw4Egj-UnV-Cpslk-1">
          <mxGeometry x="60" y="1125" width="60" height="40" as="geometry" />
        </mxCell>
        <mxCell id="RTZScmee62FlTtLlPYEP-86" value="2" style="ellipse;whiteSpace=wrap;html=1;aspect=fixed;" vertex="1" parent="i-_UMw4Egj-UnV-Cpslk-1">
          <mxGeometry x="67.5" y="1220" width="45" height="45" as="geometry" />
        </mxCell>
        <mxCell id="RTZScmee62FlTtLlPYEP-85" style="edgeStyle=orthogonalEdgeStyle;rounded=0;orthogonalLoop=1;jettySize=auto;html=1;entryX=0.5;entryY=0;entryDx=0;entryDy=0;" edge="1" parent="i-_UMw4Egj-UnV-Cpslk-1" source="RTZScmee62FlTtLlPYEP-84" target="RTZScmee62FlTtLlPYEP-86">
          <mxGeometry relative="1" as="geometry">
            <mxPoint x="90" y="1230" as="targetPoint" />
          </mxGeometry>
        </mxCell>
        <mxCell id="RTZScmee62FlTtLlPYEP-87" value="Controla la Planilla de Caja" style="text;html=1;strokeColor=none;fillColor=none;align=center;verticalAlign=middle;whiteSpace=wrap;rounded=0;" vertex="1" parent="i-_UMw4Egj-UnV-Cpslk-1">
          <mxGeometry x="105" y="1190" width="95" height="45" as="geometry" />
        </mxCell>
        <mxCell id="RTZScmee62FlTtLlPYEP-89" value="" style="whiteSpace=wrap;html=1;aspect=fixed;" vertex="1" parent="i-_UMw4Egj-UnV-Cpslk-1">
          <mxGeometry x="70" y="1310" width="40" height="40" as="geometry" />
        </mxCell>
        <mxCell id="RTZScmee62FlTtLlPYEP-88" style="edgeStyle=orthogonalEdgeStyle;rounded=0;orthogonalLoop=1;jettySize=auto;html=1;" edge="1" parent="i-_UMw4Egj-UnV-Cpslk-1" source="RTZScmee62FlTtLlPYEP-86" target="RTZScmee62FlTtLlPYEP-89">
          <mxGeometry relative="1" as="geometry">
            <mxPoint x="90" y="1305" as="targetPoint" />
          </mxGeometry>
        </mxCell>
        <mxCell id="RTZScmee62FlTtLlPYEP-91" value="3" style="ellipse;whiteSpace=wrap;html=1;aspect=fixed;" vertex="1" parent="i-_UMw4Egj-UnV-Cpslk-1">
          <mxGeometry x="67.5" y="1405" width="45" height="45" as="geometry" />
        </mxCell>
        <mxCell id="RTZScmee62FlTtLlPYEP-90" style="edgeStyle=orthogonalEdgeStyle;rounded=0;orthogonalLoop=1;jettySize=auto;html=1;entryX=0.5;entryY=0;entryDx=0;entryDy=0;" edge="1" parent="i-_UMw4Egj-UnV-Cpslk-1" source="RTZScmee62FlTtLlPYEP-89" target="RTZScmee62FlTtLlPYEP-91">
          <mxGeometry relative="1" as="geometry">
            <mxPoint x="90" y="1385" as="targetPoint" />
          </mxGeometry>
        </mxCell>
        <mxCell id="RTZScmee62FlTtLlPYEP-92" value="Confecciona la Boleta de DepÃ³sito" style="text;html=1;strokeColor=none;fillColor=none;align=center;verticalAlign=middle;whiteSpace=wrap;rounded=0;" vertex="1" parent="i-_UMw4Egj-UnV-Cpslk-1">
          <mxGeometry x="105" y="1380" width="95" height="45" as="geometry" />
        </mxCell>
        <mxCell id="RTZScmee62FlTtLlPYEP-93" value="BdD3" style="shape=document;whiteSpace=wrap;html=1;boundedLbl=1;" vertex="1" parent="i-_UMw4Egj-UnV-Cpslk-1">
          <mxGeometry x="115" y="1450" width="60" height="40" as="geometry" />
        </mxCell>
        <mxCell id="RTZScmee62FlTtLlPYEP-95" value="BdD2" style="shape=document;whiteSpace=wrap;html=1;boundedLbl=1;" vertex="1" parent="i-_UMw4Egj-UnV-Cpslk-1">
          <mxGeometry x="95" y="1470" width="60" height="40" as="geometry" />
        </mxCell>
        <mxCell id="RTZScmee62FlTtLlPYEP-94" value="BdD1" style="shape=document;whiteSpace=wrap;html=1;boundedLbl=1;" vertex="1" parent="i-_UMw4Egj-UnV-Cpslk-1">
          <mxGeometry x="75" y="1490" width="60" height="40" as="geometry" />
        </mxCell>
        <mxCell id="RTZScmee62FlTtLlPYEP-99" value="" style="endArrow=none;html=1;rounded=0;entryX=1;entryY=0;entryDx=0;entryDy=0;exitX=0;exitY=1;exitDx=0;exitDy=0;" edge="1" parent="i-_UMw4Egj-UnV-Cpslk-1" source="RTZScmee62FlTtLlPYEP-89" target="RTZScmee62FlTtLlPYEP-89">
          <mxGeometry width="50" height="50" relative="1" as="geometry">
            <mxPoint x="-10" y="1455" as="sourcePoint" />
            <mxPoint x="40" y="1405" as="targetPoint" />
          </mxGeometry>
        </mxCell>
        <mxCell id="RTZScmee62FlTtLlPYEP-100" value="" style="endArrow=none;html=1;rounded=0;entryX=1;entryY=1;entryDx=0;entryDy=0;exitX=0;exitY=0;exitDx=0;exitDy=0;" edge="1" parent="i-_UMw4Egj-UnV-Cpslk-1" source="RTZScmee62FlTtLlPYEP-89" target="RTZScmee62FlTtLlPYEP-89">
          <mxGeometry width="50" height="50" relative="1" as="geometry">
            <mxPoint x="-10" y="1455" as="sourcePoint" />
            <mxPoint x="40" y="1405" as="targetPoint" />
          </mxGeometry>
        </mxCell>
        <mxCell id="RTZScmee62FlTtLlPYEP-101" value="BdD3" style="shape=document;whiteSpace=wrap;html=1;boundedLbl=1;" vertex="1" parent="i-_UMw4Egj-UnV-Cpslk-1">
          <mxGeometry x="85" y="1635" width="60" height="40" as="geometry" />
        </mxCell>
        <mxCell id="RTZScmee62FlTtLlPYEP-102" value="BdD2" style="shape=document;whiteSpace=wrap;html=1;boundedLbl=1;" vertex="1" parent="i-_UMw4Egj-UnV-Cpslk-1">
          <mxGeometry x="65" y="1655" width="60" height="40" as="geometry" />
        </mxCell>
        <mxCell id="RTZScmee62FlTtLlPYEP-103" value="BdD1" style="shape=document;whiteSpace=wrap;html=1;boundedLbl=1;" vertex="1" parent="i-_UMw4Egj-UnV-Cpslk-1">
          <mxGeometry x="45" y="1675" width="60" height="40" as="geometry" />
        </mxCell>
        <mxCell id="RTZScmee62FlTtLlPYEP-118" value="BdD3" style="shape=document;whiteSpace=wrap;html=1;boundedLbl=1;" vertex="1" parent="i-_UMw4Egj-UnV-Cpslk-1">
          <mxGeometry x="80" y="1825" width="60" height="40" as="geometry" />
        </mxCell>
        <mxCell id="RTZScmee62FlTtLlPYEP-124" style="edgeStyle=orthogonalEdgeStyle;rounded=0;orthogonalLoop=1;jettySize=auto;html=1;" edge="1" parent="i-_UMw4Egj-UnV-Cpslk-1" source="RTZScmee62FlTtLlPYEP-119">
          <mxGeometry relative="1" as="geometry">
            <mxPoint x="90" y="1975" as="targetPoint" />
          </mxGeometry>
        </mxCell>
        <mxCell id="RTZScmee62FlTtLlPYEP-119" value="BdD2" style="shape=document;whiteSpace=wrap;html=1;boundedLbl=1;" vertex="1" parent="i-_UMw4Egj-UnV-Cpslk-1">
          <mxGeometry x="60" y="1845" width="60" height="40" as="geometry" />
        </mxCell>
        <mxCell id="RTZScmee62FlTtLlPYEP-121" value="" style="endArrow=none;html=1;rounded=0;" edge="1" parent="i-_UMw4Egj-UnV-Cpslk-1">
          <mxGeometry width="50" height="50" relative="1" as="geometry">
            <mxPoint x="115" y="1815" as="sourcePoint" />
            <mxPoint x="155" y="1850" as="targetPoint" />
          </mxGeometry>
        </mxCell>
        <mxCell id="RTZScmee62FlTtLlPYEP-122" value="" style="endArrow=none;html=1;rounded=0;" edge="1" parent="i-_UMw4Egj-UnV-Cpslk-1">
          <mxGeometry width="50" height="50" relative="1" as="geometry">
            <mxPoint x="95" y="1835" as="sourcePoint" />
            <mxPoint x="135" y="1875" as="targetPoint" />
          </mxGeometry>
        </mxCell>
        <mxCell id="RTZScmee62FlTtLlPYEP-127" style="edgeStyle=orthogonalEdgeStyle;rounded=0;orthogonalLoop=1;jettySize=auto;html=1;" edge="1" parent="i-_UMw4Egj-UnV-Cpslk-1" source="RTZScmee62FlTtLlPYEP-125">
          <mxGeometry relative="1" as="geometry">
            <mxPoint x="90" y="2070" as="targetPoint" />
          </mxGeometry>
        </mxCell>
        <mxCell id="RTZScmee62FlTtLlPYEP-125" value="2" style="ellipse;whiteSpace=wrap;html=1;aspect=fixed;" vertex="1" parent="i-_UMw4Egj-UnV-Cpslk-1">
          <mxGeometry x="67.5" y="1975" width="45" height="45" as="geometry" />
        </mxCell>
        <mxCell id="RTZScmee62FlTtLlPYEP-126" value="Envia el duplicado y abrocha el triplicado" style="text;html=1;strokeColor=none;fillColor=none;align=center;verticalAlign=middle;whiteSpace=wrap;rounded=0;" vertex="1" parent="i-_UMw4Egj-UnV-Cpslk-1">
          <mxGeometry x="107.5" y="1970" width="90" height="30" as="geometry" />
        </mxCell>
        <mxCell id="RTZScmee62FlTtLlPYEP-131" style="edgeStyle=orthogonalEdgeStyle;rounded=0;orthogonalLoop=1;jettySize=auto;html=1;" edge="1" parent="i-_UMw4Egj-UnV-Cpslk-1" source="RTZScmee62FlTtLlPYEP-128">
          <mxGeometry relative="1" as="geometry">
            <mxPoint x="255" y="2093" as="targetPoint" />
          </mxGeometry>
        </mxCell>
        <mxCell id="RTZScmee62FlTtLlPYEP-134" style="edgeStyle=orthogonalEdgeStyle;rounded=0;orthogonalLoop=1;jettySize=auto;html=1;" edge="1" parent="i-_UMw4Egj-UnV-Cpslk-1" source="RTZScmee62FlTtLlPYEP-128">
          <mxGeometry relative="1" as="geometry">
            <mxPoint x="90" y="2185" as="targetPoint" />
          </mxGeometry>
        </mxCell>
        <mxCell id="RTZScmee62FlTtLlPYEP-128" value="" style="ellipse;whiteSpace=wrap;html=1;aspect=fixed;" vertex="1" parent="i-_UMw4Egj-UnV-Cpslk-1">
          <mxGeometry x="67.5" y="2070" width="45" height="45" as="geometry" />
        </mxCell>
        <mxCell id="RTZScmee62FlTtLlPYEP-129" value="" style="endArrow=none;html=1;rounded=0;entryX=0.5;entryY=0;entryDx=0;entryDy=0;exitX=0;exitY=1;exitDx=0;exitDy=0;" edge="1" parent="i-_UMw4Egj-UnV-Cpslk-1" source="RTZScmee62FlTtLlPYEP-128" target="RTZScmee62FlTtLlPYEP-128">
          <mxGeometry width="50" height="50" relative="1" as="geometry">
            <mxPoint x="340" y="2125" as="sourcePoint" />
            <mxPoint x="390" y="2075" as="targetPoint" />
          </mxGeometry>
        </mxCell>
        <mxCell id="RTZScmee62FlTtLlPYEP-130" value="" style="endArrow=none;html=1;rounded=0;entryX=0.5;entryY=0;entryDx=0;entryDy=0;exitX=1;exitY=1;exitDx=0;exitDy=0;" edge="1" parent="i-_UMw4Egj-UnV-Cpslk-1" source="RTZScmee62FlTtLlPYEP-128" target="RTZScmee62FlTtLlPYEP-128">
          <mxGeometry width="50" height="50" relative="1" as="geometry">
            <mxPoint x="340" y="2125" as="sourcePoint" />
            <mxPoint x="390" y="2075" as="targetPoint" />
          </mxGeometry>
        </mxCell>
        <mxCell id="RTZScmee62FlTtLlPYEP-135" value="BdD3" style="shape=document;whiteSpace=wrap;html=1;boundedLbl=1;" vertex="1" parent="i-_UMw4Egj-UnV-Cpslk-1">
          <mxGeometry x="95" y="2195" width="60" height="40" as="geometry" />
        </mxCell>
        <mxCell id="RTZScmee62FlTtLlPYEP-136" value="" style="endArrow=none;html=1;rounded=0;" edge="1" parent="i-_UMw4Egj-UnV-Cpslk-1">
          <mxGeometry width="50" height="50" relative="1" as="geometry">
            <mxPoint x="130" y="2185" as="sourcePoint" />
            <mxPoint x="170" y="2220" as="targetPoint" />
          </mxGeometry>
        </mxCell>
        <mxCell id="RTZScmee62FlTtLlPYEP-137" value="PdC" style="shape=document;whiteSpace=wrap;html=1;boundedLbl=1;" vertex="1" parent="i-_UMw4Egj-UnV-Cpslk-1">
          <mxGeometry x="70" y="2215" width="60" height="40" as="geometry" />
        </mxCell>
        <mxCell id="RTZScmee62FlTtLlPYEP-139" value="" style="triangle;whiteSpace=wrap;html=1;rotation=-90;" vertex="1" parent="i-_UMw4Egj-UnV-Cpslk-1">
          <mxGeometry x="80" y="2280" width="40" height="50" as="geometry" />
        </mxCell>
        <mxCell id="RTZScmee62FlTtLlPYEP-138" style="edgeStyle=orthogonalEdgeStyle;rounded=0;orthogonalLoop=1;jettySize=auto;html=1;" edge="1" parent="i-_UMw4Egj-UnV-Cpslk-1" source="RTZScmee62FlTtLlPYEP-137" target="RTZScmee62FlTtLlPYEP-139">
          <mxGeometry relative="1" as="geometry">
            <mxPoint x="100" y="2300" as="targetPoint" />
          </mxGeometry>
        </mxCell>
        <mxCell id="RTZScmee62FlTtLlPYEP-140" value="&lt;font style=&quot;font-size: 14px;&quot;&gt;d&lt;/font&gt;" style="text;html=1;strokeColor=none;fillColor=none;align=center;verticalAlign=middle;whiteSpace=wrap;rounded=0;" vertex="1" parent="i-_UMw4Egj-UnV-Cpslk-1">
          <mxGeometry x="70" y="2295" width="60" height="30" as="geometry" />
        </mxCell>
        <mxCell id="RTZScmee62FlTtLlPYEP-168" value="&lt;font color=&quot;#ed0202&quot; style=&quot;font-size: 17px;&quot;&gt;Mensualmente&lt;/font&gt;" style="text;html=1;strokeColor=none;fillColor=none;align=center;verticalAlign=middle;whiteSpace=wrap;rounded=0;" vertex="1" parent="i-_UMw4Egj-UnV-Cpslk-1">
          <mxGeometry x="67.5" y="3210" width="60" height="30" as="geometry" />
        </mxCell>
        <mxCell id="RTZScmee62FlTtLlPYEP-169" value="1" style="ellipse;whiteSpace=wrap;html=1;aspect=fixed;" vertex="1" parent="i-_UMw4Egj-UnV-Cpslk-1">
          <mxGeometry x="75" y="3275" width="50" height="50" as="geometry" />
        </mxCell>
        <mxCell id="RTZScmee62FlTtLlPYEP-171" value="Solicitan resÃºmenes" style="text;html=1;strokeColor=none;fillColor=none;align=center;verticalAlign=middle;whiteSpace=wrap;rounded=0;" vertex="1" parent="i-_UMw4Egj-UnV-Cpslk-1">
          <mxGeometry x="135" y="3275" width="60" height="30" as="geometry" />
        </mxCell>
        <mxCell id="RTZScmee62FlTtLlPYEP-181" value="Res. Ban." style="shape=document;whiteSpace=wrap;html=1;boundedLbl=1;" vertex="1" parent="i-_UMw4Egj-UnV-Cpslk-1">
          <mxGeometry x="60" y="3445" width="60" height="40" as="geometry" />
        </mxCell>
        <mxCell id="RTZScmee62FlTtLlPYEP-193" value="" style="triangle;whiteSpace=wrap;html=1;rotation=-90;" vertex="1" parent="i-_UMw4Egj-UnV-Cpslk-1">
          <mxGeometry x="100" y="3685" width="40" height="50" as="geometry" />
        </mxCell>
        <mxCell id="RTZScmee62FlTtLlPYEP-194" value="&lt;font style=&quot;font-size: 14px;&quot;&gt;d&lt;/font&gt;" style="text;html=1;strokeColor=none;fillColor=none;align=center;verticalAlign=middle;whiteSpace=wrap;rounded=0;" vertex="1" parent="i-_UMw4Egj-UnV-Cpslk-1">
          <mxGeometry x="90" y="3700" width="60" height="30" as="geometry" />
        </mxCell>
        <mxCell id="i-_UMw4Egj-UnV-Cpslk-2" value="ContadurÃ­a Gral." style="swimlane;startSize=20;html=1;" parent="k_RozOxkvB2d1GZJaJB8-33" vertex="1">
          <mxGeometry x="1015" y="15" width="200" height="3750" as="geometry" />
        </mxCell>
        <mxCell id="RTZScmee62FlTtLlPYEP-80" value="F2" style="shape=document;whiteSpace=wrap;html=1;boundedLbl=1;" vertex="1" parent="i-_UMw4Egj-UnV-Cpslk-2">
          <mxGeometry x="60" y="1060" width="60" height="40" as="geometry" />
        </mxCell>
        <mxCell id="RTZScmee62FlTtLlPYEP-81" value="" style="endArrow=none;html=1;rounded=0;" edge="1" parent="i-_UMw4Egj-UnV-Cpslk-2">
          <mxGeometry width="50" height="50" relative="1" as="geometry">
            <mxPoint x="130" y="1092.5" as="sourcePoint" />
            <mxPoint x="90" y="1047.5" as="targetPoint" />
            <Array as="points">
              <mxPoint x="115" y="1075" />
            </Array>
          </mxGeometry>
        </mxCell>
        <mxCell id="RTZScmee62FlTtLlPYEP-156" style="edgeStyle=orthogonalEdgeStyle;rounded=0;orthogonalLoop=1;jettySize=auto;html=1;" edge="1" parent="i-_UMw4Egj-UnV-Cpslk-2" source="RTZScmee62FlTtLlPYEP-155">
          <mxGeometry relative="1" as="geometry">
            <mxPoint x="120" y="2940" as="targetPoint" />
          </mxGeometry>
        </mxCell>
        <mxCell id="RTZScmee62FlTtLlPYEP-155" value="M" style="shape=document;whiteSpace=wrap;html=1;boundedLbl=1;" vertex="1" parent="i-_UMw4Egj-UnV-Cpslk-2">
          <mxGeometry x="90" y="2835" width="60" height="40" as="geometry" />
        </mxCell>
        <mxCell id="RTZScmee62FlTtLlPYEP-160" style="edgeStyle=orthogonalEdgeStyle;rounded=0;orthogonalLoop=1;jettySize=auto;html=1;" edge="1" parent="i-_UMw4Egj-UnV-Cpslk-2" source="RTZScmee62FlTtLlPYEP-158">
          <mxGeometry relative="1" as="geometry">
            <mxPoint x="120" y="3040" as="targetPoint" />
          </mxGeometry>
        </mxCell>
        <mxCell id="RTZScmee62FlTtLlPYEP-158" value="5" style="ellipse;whiteSpace=wrap;html=1;aspect=fixed;" vertex="1" parent="i-_UMw4Egj-UnV-Cpslk-2">
          <mxGeometry x="95" y="2940" width="50" height="50" as="geometry" />
        </mxCell>
        <mxCell id="RTZScmee62FlTtLlPYEP-159" value="Registra en base a comprobantes y minutas" style="text;html=1;strokeColor=none;fillColor=none;align=center;verticalAlign=middle;whiteSpace=wrap;rounded=0;" vertex="1" parent="i-_UMw4Egj-UnV-Cpslk-2">
          <mxGeometry x="15" y="2945" width="60" height="30" as="geometry" />
        </mxCell>
        <mxCell id="RTZScmee62FlTtLlPYEP-161" value="Ficha de Mayor" style="shape=document;whiteSpace=wrap;html=1;boundedLbl=1;" vertex="1" parent="i-_UMw4Egj-UnV-Cpslk-2">
          <mxGeometry x="40" y="3045" width="60" height="40" as="geometry" />
        </mxCell>
        <mxCell id="RTZScmee62FlTtLlPYEP-162" value="DG" style="shape=document;whiteSpace=wrap;html=1;boundedLbl=1;" vertex="1" parent="i-_UMw4Egj-UnV-Cpslk-2">
          <mxGeometry x="120" y="3045" width="60" height="40" as="geometry" />
        </mxCell>
        <mxCell id="RTZScmee62FlTtLlPYEP-164" value="" style="triangle;whiteSpace=wrap;html=1;rotation=-90;" vertex="1" parent="i-_UMw4Egj-UnV-Cpslk-2">
          <mxGeometry x="90" y="3165" width="40" height="50" as="geometry" />
        </mxCell>
        <mxCell id="RTZScmee62FlTtLlPYEP-165" value="&lt;font style=&quot;font-size: 14px;&quot;&gt;d&lt;/font&gt;" style="text;html=1;strokeColor=none;fillColor=none;align=center;verticalAlign=middle;whiteSpace=wrap;rounded=0;" vertex="1" parent="i-_UMw4Egj-UnV-Cpslk-2">
          <mxGeometry x="80" y="3180" width="60" height="30" as="geometry" />
        </mxCell>
        <mxCell id="RTZScmee62FlTtLlPYEP-170" value="2" style="ellipse;whiteSpace=wrap;html=1;aspect=fixed;" vertex="1" parent="i-_UMw4Egj-UnV-Cpslk-2">
          <mxGeometry x="85" y="3280" width="50" height="50" as="geometry" />
        </mxCell>
        <mxCell id="RTZScmee62FlTtLlPYEP-172" value="Solicitan resÃºmenes" style="text;html=1;strokeColor=none;fillColor=none;align=center;verticalAlign=middle;whiteSpace=wrap;rounded=0;" vertex="1" parent="i-_UMw4Egj-UnV-Cpslk-2">
          <mxGeometry x="130" y="3255" width="60" height="30" as="geometry" />
        </mxCell>
        <mxCell id="RTZScmee62FlTtLlPYEP-180" value="Res. Ban." style="shape=document;whiteSpace=wrap;html=1;boundedLbl=1;" vertex="1" parent="i-_UMw4Egj-UnV-Cpslk-2">
          <mxGeometry x="70" y="3410" width="60" height="40" as="geometry" />
        </mxCell>
        <mxCell id="RTZScmee62FlTtLlPYEP-185" value="" style="whiteSpace=wrap;html=1;aspect=fixed;" vertex="1" parent="i-_UMw4Egj-UnV-Cpslk-2">
          <mxGeometry x="-25" y="3580" width="50" height="50" as="geometry" />
        </mxCell>
        <mxCell id="RTZScmee62FlTtLlPYEP-188" value="" style="endArrow=none;html=1;rounded=0;entryX=1;entryY=0;entryDx=0;entryDy=0;exitX=0;exitY=1;exitDx=0;exitDy=0;" edge="1" parent="i-_UMw4Egj-UnV-Cpslk-2" source="RTZScmee62FlTtLlPYEP-185" target="RTZScmee62FlTtLlPYEP-185">
          <mxGeometry width="50" height="50" relative="1" as="geometry">
            <mxPoint x="-20" y="3675" as="sourcePoint" />
            <mxPoint x="30" y="3625" as="targetPoint" />
          </mxGeometry>
        </mxCell>
        <mxCell id="RTZScmee62FlTtLlPYEP-189" value="" style="endArrow=none;html=1;rounded=0;entryX=0;entryY=0;entryDx=0;entryDy=0;exitX=1;exitY=1;exitDx=0;exitDy=0;" edge="1" parent="i-_UMw4Egj-UnV-Cpslk-2" source="RTZScmee62FlTtLlPYEP-185" target="RTZScmee62FlTtLlPYEP-185">
          <mxGeometry width="50" height="50" relative="1" as="geometry">
            <mxPoint x="-20" y="3675" as="sourcePoint" />
            <mxPoint x="30" y="3625" as="targetPoint" />
          </mxGeometry>
        </mxCell>
        <mxCell id="RTZScmee62FlTtLlPYEP-195" value="" style="triangle;whiteSpace=wrap;html=1;rotation=-90;" vertex="1" parent="i-_UMw4Egj-UnV-Cpslk-2">
          <mxGeometry x="65" y="3685" width="40" height="50" as="geometry" />
        </mxCell>
        <mxCell id="RTZScmee62FlTtLlPYEP-196" value="&lt;font style=&quot;font-size: 14px;&quot;&gt;d&lt;/font&gt;" style="text;html=1;strokeColor=none;fillColor=none;align=center;verticalAlign=middle;whiteSpace=wrap;rounded=0;" vertex="1" parent="i-_UMw4Egj-UnV-Cpslk-2">
          <mxGeometry x="55" y="3700" width="60" height="30" as="geometry" />
        </mxCell>
        <mxCell id="i-_UMw4Egj-UnV-Cpslk-3" value="Banco" style="swimlane;startSize=20;html=1;" parent="k_RozOxkvB2d1GZJaJB8-33" vertex="1">
          <mxGeometry x="1215" y="15" width="200" height="3750" as="geometry" />
        </mxCell>
        <mxCell id="RTZScmee62FlTtLlPYEP-105" value="BdD3" style="shape=document;whiteSpace=wrap;html=1;boundedLbl=1;" vertex="1" parent="i-_UMw4Egj-UnV-Cpslk-3">
          <mxGeometry x="95" y="1640" width="60" height="40" as="geometry" />
        </mxCell>
        <mxCell id="RTZScmee62FlTtLlPYEP-106" value="BdD2" style="shape=document;whiteSpace=wrap;html=1;boundedLbl=1;" vertex="1" parent="i-_UMw4Egj-UnV-Cpslk-3">
          <mxGeometry x="75" y="1660" width="60" height="40" as="geometry" />
        </mxCell>
        <mxCell id="RTZScmee62FlTtLlPYEP-107" value="BdD1" style="shape=document;whiteSpace=wrap;html=1;boundedLbl=1;" vertex="1" parent="i-_UMw4Egj-UnV-Cpslk-3">
          <mxGeometry x="55" y="1680" width="60" height="40" as="geometry" />
        </mxCell>
        <mxCell id="RTZScmee62FlTtLlPYEP-117" style="edgeStyle=orthogonalEdgeStyle;rounded=0;orthogonalLoop=1;jettySize=auto;html=1;" edge="1" parent="i-_UMw4Egj-UnV-Cpslk-3" source="RTZScmee62FlTtLlPYEP-109">
          <mxGeometry relative="1" as="geometry">
            <mxPoint x="-235" y="1852.5" as="targetPoint" />
          </mxGeometry>
        </mxCell>
        <mxCell id="RTZScmee62FlTtLlPYEP-109" value="1" style="ellipse;whiteSpace=wrap;html=1;aspect=fixed;" vertex="1" parent="i-_UMw4Egj-UnV-Cpslk-3">
          <mxGeometry x="30" y="1830" width="45" height="45" as="geometry" />
        </mxCell>
        <mxCell id="RTZScmee62FlTtLlPYEP-110" value="Firma y sella las boletas y las envia" style="text;html=1;strokeColor=none;fillColor=none;align=center;verticalAlign=middle;whiteSpace=wrap;rounded=0;" vertex="1" parent="i-_UMw4Egj-UnV-Cpslk-3">
          <mxGeometry y="1765" width="95" height="45" as="geometry" />
        </mxCell>
        <mxCell id="RTZScmee62FlTtLlPYEP-111" value="BdD3" style="shape=document;whiteSpace=wrap;html=1;boundedLbl=1;" vertex="1" parent="i-_UMw4Egj-UnV-Cpslk-3">
          <mxGeometry x="125" y="1795" width="60" height="40" as="geometry" />
        </mxCell>
        <mxCell id="RTZScmee62FlTtLlPYEP-112" value="BdD2" style="shape=document;whiteSpace=wrap;html=1;boundedLbl=1;" vertex="1" parent="i-_UMw4Egj-UnV-Cpslk-3">
          <mxGeometry x="105" y="1815" width="60" height="40" as="geometry" />
        </mxCell>
        <mxCell id="RTZScmee62FlTtLlPYEP-113" value="BdD1" style="shape=document;whiteSpace=wrap;html=1;boundedLbl=1;" vertex="1" parent="i-_UMw4Egj-UnV-Cpslk-3">
          <mxGeometry x="85" y="1835" width="60" height="40" as="geometry" />
        </mxCell>
        <mxCell id="RTZScmee62FlTtLlPYEP-114" value="" style="endArrow=none;html=1;rounded=0;" edge="1" parent="i-_UMw4Egj-UnV-Cpslk-3">
          <mxGeometry width="50" height="50" relative="1" as="geometry">
            <mxPoint x="160" y="1785" as="sourcePoint" />
            <mxPoint x="200" y="1820" as="targetPoint" />
          </mxGeometry>
        </mxCell>
        <mxCell id="RTZScmee62FlTtLlPYEP-115" value="" style="endArrow=none;html=1;rounded=0;" edge="1" parent="i-_UMw4Egj-UnV-Cpslk-3">
          <mxGeometry width="50" height="50" relative="1" as="geometry">
            <mxPoint x="140" y="1805" as="sourcePoint" />
            <mxPoint x="180" y="1845" as="targetPoint" />
          </mxGeometry>
        </mxCell>
        <mxCell id="RTZScmee62FlTtLlPYEP-116" value="" style="endArrow=none;html=1;rounded=0;" edge="1" parent="i-_UMw4Egj-UnV-Cpslk-3">
          <mxGeometry width="50" height="50" relative="1" as="geometry">
            <mxPoint x="115" y="1825" as="sourcePoint" />
            <mxPoint x="155" y="1860" as="targetPoint" />
          </mxGeometry>
        </mxCell>
        <mxCell id="RTZScmee62FlTtLlPYEP-178" value="Res. Ban." style="shape=document;whiteSpace=wrap;html=1;boundedLbl=1;" vertex="1" parent="i-_UMw4Egj-UnV-Cpslk-3">
          <mxGeometry x="70" y="3350" width="60" height="40" as="geometry" />
        </mxCell>
        <mxCell id="RTZScmee62FlTtLlPYEP-47" style="edgeStyle=orthogonalEdgeStyle;rounded=0;orthogonalLoop=1;jettySize=auto;html=1;entryX=1;entryY=0.5;entryDx=0;entryDy=0;" edge="1" parent="k_RozOxkvB2d1GZJaJB8-33" source="RTZScmee62FlTtLlPYEP-44" target="RTZScmee62FlTtLlPYEP-48">
          <mxGeometry relative="1" as="geometry">
            <mxPoint x="550" y="580" as="targetPoint" />
          </mxGeometry>
        </mxCell>
        <mxCell id="RTZScmee62FlTtLlPYEP-52" value="" style="edgeStyle=elbowEdgeStyle;elbow=horizontal;endArrow=classic;html=1;curved=0;rounded=0;endSize=8;startSize=8;exitX=0.5;exitY=1;exitDx=0;exitDy=0;entryX=1;entryY=0.5;entryDx=0;entryDy=0;" edge="1" parent="k_RozOxkvB2d1GZJaJB8-33" source="RTZScmee62FlTtLlPYEP-48" target="RTZScmee62FlTtLlPYEP-53">
          <mxGeometry width="50" height="50" relative="1" as="geometry">
            <mxPoint x="670" y="615" as="sourcePoint" />
            <mxPoint x="350" y="640" as="targetPoint" />
            <Array as="points">
              <mxPoint x="515" y="630" />
            </Array>
          </mxGeometry>
        </mxCell>
        <mxCell id="RTZScmee62FlTtLlPYEP-19" value="" style="endArrow=none;dashed=1;html=1;dashPattern=12 12;strokeWidth=2;rounded=0;strokeColor=#2D7600;fillColor=#60a917;" edge="1" parent="1" source="RTZScmee62FlTtLlPYEP-20">
          <mxGeometry width="50" height="50" relative="1" as="geometry">
            <mxPoint x="25" y="95" as="sourcePoint" />
            <mxPoint x="1496" y="95" as="targetPoint" />
          </mxGeometry>
        </mxCell>
        <mxCell id="RTZScmee62FlTtLlPYEP-21" value="" style="endArrow=none;dashed=1;html=1;dashPattern=12 12;strokeWidth=2;rounded=0;strokeColor=#00CC00;fillColor=#60a917;" edge="1" parent="1" target="RTZScmee62FlTtLlPYEP-20">
          <mxGeometry width="50" height="50" relative="1" as="geometry">
            <mxPoint x="30" y="85" as="sourcePoint" />
            <mxPoint x="1496" y="95" as="targetPoint" />
          </mxGeometry>
        </mxCell>
        <mxCell id="RTZScmee62FlTtLlPYEP-20" value="&lt;font style=&quot;font-size: 17px;&quot;&gt;OperaciÃ³n A&lt;/font&gt;" style="text;html=1;strokeColor=none;fillColor=none;align=center;verticalAlign=middle;whiteSpace=wrap;rounded=0;fontColor=#08ba14;" vertex="1" parent="1">
          <mxGeometry x="780" y="70" width="100" height="30" as="geometry" />
        </mxCell>
        <mxCell id="RTZScmee62FlTtLlPYEP-40" style="edgeStyle=orthogonalEdgeStyle;rounded=0;orthogonalLoop=1;jettySize=auto;html=1;entryX=0;entryY=0.5;entryDx=0;entryDy=0;" edge="1" parent="1" source="RTZScmee62FlTtLlPYEP-26" target="RTZScmee62FlTtLlPYEP-41">
          <mxGeometry relative="1" as="geometry">
            <mxPoint x="695" y="482.5" as="targetPoint" />
          </mxGeometry>
        </mxCell>
        <mxCell id="RTZScmee62FlTtLlPYEP-26" value="1" style="ellipse;whiteSpace=wrap;html=1;aspect=fixed;" vertex="1" parent="1">
          <mxGeometry x="490" y="460" width="45" height="45" as="geometry" />
        </mxCell>
        <mxCell id="RTZScmee62FlTtLlPYEP-49" value="Recibe y los envia junto con el pago" style="text;html=1;strokeColor=none;fillColor=none;align=center;verticalAlign=middle;whiteSpace=wrap;rounded=0;" vertex="1" parent="1">
          <mxGeometry x="535" y="550" width="95" height="45" as="geometry" />
        </mxCell>
        <mxCell id="RTZScmee62FlTtLlPYEP-65" value="" style="endArrow=none;dashed=1;html=1;dashPattern=12 12;strokeWidth=2;rounded=0;fillColor=#e51400;strokeColor=#B20000;" edge="1" parent="1">
          <mxGeometry width="50" height="50" relative="1" as="geometry">
            <mxPoint x="8" y="880" as="sourcePoint" />
            <mxPoint x="1475" y="880" as="targetPoint" />
          </mxGeometry>
        </mxCell>
        <mxCell id="RTZScmee62FlTtLlPYEP-76" value="" style="edgeStyle=elbowEdgeStyle;elbow=horizontal;endArrow=classic;html=1;curved=0;rounded=0;endSize=8;startSize=8;exitX=0.5;exitY=1;exitDx=0;exitDy=0;" edge="1" parent="1" source="RTZScmee62FlTtLlPYEP-71">
          <mxGeometry width="50" height="50" relative="1" as="geometry">
            <mxPoint x="600" y="1080" as="sourcePoint" />
            <mxPoint x="1095" y="1120" as="targetPoint" />
            <Array as="points">
              <mxPoint x="270" y="1080" />
            </Array>
          </mxGeometry>
        </mxCell>
        <mxCell id="RTZScmee62FlTtLlPYEP-82" value="" style="endArrow=classic;html=1;rounded=0;" edge="1" parent="1">
          <mxGeometry width="50" height="50" relative="1" as="geometry">
            <mxPoint x="940" y="1120" as="sourcePoint" />
            <mxPoint x="940" y="1160" as="targetPoint" />
          </mxGeometry>
        </mxCell>
        <mxCell id="RTZScmee62FlTtLlPYEP-96" value="" style="endArrow=none;dashed=1;html=1;dashPattern=12 12;strokeWidth=2;rounded=0;fillColor=#e51400;strokeColor=#B20000;" edge="1" parent="1">
          <mxGeometry width="50" height="50" relative="1" as="geometry">
            <mxPoint x="15" y="1670" as="sourcePoint" />
            <mxPoint x="1594" y="1670" as="targetPoint" />
          </mxGeometry>
        </mxCell>
        <mxCell id="RTZScmee62FlTtLlPYEP-104" value="" style="endArrow=classic;html=1;rounded=0;" edge="1" parent="1">
          <mxGeometry width="50" height="50" relative="1" as="geometry">
            <mxPoint x="1005" y="1725" as="sourcePoint" />
            <mxPoint x="1280" y="1725" as="targetPoint" />
          </mxGeometry>
        </mxCell>
        <mxCell id="RTZScmee62FlTtLlPYEP-108" value="" style="endArrow=classic;html=1;rounded=0;entryX=0.5;entryY=0;entryDx=0;entryDy=0;" edge="1" parent="1" target="RTZScmee62FlTtLlPYEP-109">
          <mxGeometry width="50" height="50" relative="1" as="geometry">
            <mxPoint x="1345" y="1775" as="sourcePoint" />
            <mxPoint x="1345" y="1840" as="targetPoint" />
          </mxGeometry>
        </mxCell>
        <mxCell id="RTZScmee62FlTtLlPYEP-132" value="BdD2" style="shape=document;whiteSpace=wrap;html=1;boundedLbl=1;" vertex="1" parent="1">
          <mxGeometry x="1110" y="2125" width="60" height="40" as="geometry" />
        </mxCell>
        <mxCell id="RTZScmee62FlTtLlPYEP-133" value="" style="endArrow=none;html=1;rounded=0;" edge="1" parent="1">
          <mxGeometry width="50" height="50" relative="1" as="geometry">
            <mxPoint x="1145" y="2115" as="sourcePoint" />
            <mxPoint x="1185" y="2155" as="targetPoint" />
          </mxGeometry>
        </mxCell>
        <mxCell id="RTZScmee62FlTtLlPYEP-147" value="" style="endArrow=classic;html=1;rounded=0;" edge="1" parent="1">
          <mxGeometry width="50" height="50" relative="1" as="geometry">
            <mxPoint x="735" y="2580" as="sourcePoint" />
            <mxPoint x="735" y="2660" as="targetPoint" />
          </mxGeometry>
        </mxCell>
        <mxCell id="RTZScmee62FlTtLlPYEP-163" value="" style="endArrow=classic;html=1;rounded=0;" edge="1" parent="1">
          <mxGeometry width="50" height="50" relative="1" as="geometry">
            <mxPoint x="1155" y="3135" as="sourcePoint" />
            <mxPoint x="1155" y="3215" as="targetPoint" />
          </mxGeometry>
        </mxCell>
        <mxCell id="RTZScmee62FlTtLlPYEP-166" value="" style="endArrow=none;dashed=1;html=1;dashPattern=12 12;strokeWidth=2;rounded=0;fillColor=#e51400;strokeColor=#B20000;" edge="1" parent="1">
          <mxGeometry width="50" height="50" relative="1" as="geometry">
            <mxPoint x="2" y="3290" as="sourcePoint" />
            <mxPoint x="1465" y="3290" as="targetPoint" />
          </mxGeometry>
        </mxCell>
        <mxCell id="RTZScmee62FlTtLlPYEP-175" value="" style="edgeStyle=elbowEdgeStyle;elbow=horizontal;endArrow=classic;html=1;curved=0;rounded=0;endSize=8;startSize=8;exitX=0.5;exitY=1;exitDx=0;exitDy=0;" edge="1" parent="1" source="RTZScmee62FlTtLlPYEP-169">
          <mxGeometry width="50" height="50" relative="1" as="geometry">
            <mxPoint x="1035" y="3420" as="sourcePoint" />
            <mxPoint x="1310" y="3415" as="targetPoint" />
            <Array as="points">
              <mxPoint x="945" y="3390" />
            </Array>
          </mxGeometry>
        </mxCell>
        <mxCell id="RTZScmee62FlTtLlPYEP-176" value="" style="endArrow=none;html=1;rounded=0;entryX=0.5;entryY=1;entryDx=0;entryDy=0;" edge="1" parent="1" target="RTZScmee62FlTtLlPYEP-170">
          <mxGeometry width="50" height="50" relative="1" as="geometry">
            <mxPoint x="1155" y="3415" as="sourcePoint" />
            <mxPoint x="1085" y="3370" as="targetPoint" />
          </mxGeometry>
        </mxCell>
        <mxCell id="RTZScmee62FlTtLlPYEP-179" value="" style="edgeStyle=elbowEdgeStyle;elbow=horizontal;endArrow=classic;html=1;curved=0;rounded=0;endSize=8;startSize=8;" edge="1" parent="1">
          <mxGeometry width="50" height="50" relative="1" as="geometry">
            <mxPoint x="1340" y="3450" as="sourcePoint" />
            <mxPoint x="970" y="3510" as="targetPoint" />
            <Array as="points">
              <mxPoint x="1340" y="3485" />
            </Array>
          </mxGeometry>
        </mxCell>
        <mxCell id="RTZScmee62FlTtLlPYEP-182" value="" style="endArrow=classic;html=1;rounded=0;" edge="1" parent="1">
          <mxGeometry width="50" height="50" relative="1" as="geometry">
            <mxPoint x="1340" y="3475" as="sourcePoint" />
            <mxPoint x="1190" y="3475" as="targetPoint" />
          </mxGeometry>
        </mxCell>
        <mxCell id="RTZScmee62FlTtLlPYEP-186" value="" style="endArrow=classic;html=1;rounded=0;entryX=0.5;entryY=0;entryDx=0;entryDy=0;" edge="1" parent="1" target="RTZScmee62FlTtLlPYEP-185">
          <mxGeometry width="50" height="50" relative="1" as="geometry">
            <mxPoint x="940" y="3540" as="sourcePoint" />
            <mxPoint x="1075" y="3670" as="targetPoint" />
          </mxGeometry>
        </mxCell>
        <mxCell id="RTZScmee62FlTtLlPYEP-187" value="" style="endArrow=classic;html=1;rounded=0;entryX=0.5;entryY=0;entryDx=0;entryDy=0;" edge="1" parent="1" target="RTZScmee62FlTtLlPYEP-185">
          <mxGeometry width="50" height="50" relative="1" as="geometry">
            <mxPoint x="1150" y="3500" as="sourcePoint" />
            <mxPoint x="1075" y="3670" as="targetPoint" />
          </mxGeometry>
        </mxCell>
        <mxCell id="RTZScmee62FlTtLlPYEP-191" value="" style="endArrow=classic;html=1;rounded=0;exitX=0.5;exitY=1;exitDx=0;exitDy=0;" edge="1" parent="1" source="RTZScmee62FlTtLlPYEP-185">
          <mxGeometry width="50" height="50" relative="1" as="geometry">
            <mxPoint x="1025" y="3720" as="sourcePoint" />
            <mxPoint x="1130" y="3735" as="targetPoint" />
          </mxGeometry>
        </mxCell>
        <mxCell id="RTZScmee62FlTtLlPYEP-192" value="" style="endArrow=classic;html=1;rounded=0;exitX=0.5;exitY=1;exitDx=0;exitDy=0;" edge="1" parent="1" source="RTZScmee62FlTtLlPYEP-185">
          <mxGeometry width="50" height="50" relative="1" as="geometry">
            <mxPoint x="1025" y="3720" as="sourcePoint" />
            <mxPoint x="970" y="3735" as="targetPoint" />
          </mxGeometry>
        </mxCell>
      </root>
    </mxGraphModel>
  </diagram>
</mxfile>
